<svg xmlns="http://www.w3.org/2000/svg" width="241.719" height="192.688" viewBox="0 0 241.719 192.688">
  <defs>
    <style>
      .cls-1 {
        fill: #ff8181;
        stroke: #ff8181;
        stroke-width: 5.07px;
        fill-rule: evenodd;
      }
    </style>
  </defs>
  <path id="abxazeti" class="cls-1" d="M193,275s0.75-13.126,0-16-2-9.626-6-13-4-8.376-11-11-5.25,1.124-13-3-12.25-4.376-14-12-1.75-14.376-7-18-7-4.876-11-6-6.75-7.126-8-9-1.75-1.626-8-2-16.75-2.376-18-3-6.25-3.126-7-5-4.75-2.626-8-4-5.25-5.876-6-7-7.25-1.876-10-2-3.75,2.624-7-7-3.5-13.126-5-17-2.5-6.626-7-7-10.5-1.876-12-5-0.5-12.126,0-14,1.75-10.376,5-13,3.5-2.626,7-4,8.5-1.876,12-2a23.918,23.918,0,0,1,11,2c3.25,1.626,7.75,5.374,10,7s6.75,5.624,9,6,6.75-3.626,10-5a19.037,19.037,0,0,1,12-1c4.5,1.126,7.25,3.374,12,6a111.133,111.133,0,0,1,11,7c2.25,1.626,4.75,6.624,9,10a108.3,108.3,0,0,0,12,8c2,1.126,8.25,2.124,11,3s7.25,1.874,13,4a45.871,45.871,0,0,1,13,7,77.084,77.084,0,0,1,9,8c2.75,2.626,5.25,6.124,10,7a23.1,23.1,0,0,0,13-2c2.75-1.374,7.75.124,13-1s7.75-2.376,12-3,6.75,1.124,10,3,3.5,3.374,6,3,8,0.124,5,5-3.5,4.874-6,8-3,3.874-6,6-6,2.874-9,4-6.25,2.374-8,5a16.839,16.839,0,0,0-3,9c0,3.126,2.75,5.874,4,8s0.75,5.124,1,9-1.5,5.624-2,9-0.75,4.124,1,8a13.331,13.331,0,0,1,1,9c-0.5,2.376.75,6.624-3,10s-8,8-8,8-6.25,4.624-10,7-5.25,1.374-10,2-3.5,1.874-7,5-3.75,4.374-7,6-5-.376-5-2v-3S191.5,279,193,275Z" transform="translate(-31.688 -92.438)"/>
</svg>
