<svg xmlns="http://www.w3.org/2000/svg" width="139.937" height="87.219" viewBox="0 0 139.937 87.219">
  <defs>
    <style>
      .cls-1 {
        fill: #e8f2ad;
        stroke: #e8f2ad;
        stroke-width: 5.07px;
        fill-rule: evenodd;
      }
    </style>
  </defs>
  <path id="adjara" class="cls-1" d="M334,424s-3.4-8.3-11-12a23.974,23.974,0,0,1-12-14c-1-3.3,2-8,0-9s-33,0-33,0-15.4-6.9-17-9-9.2-4.1-15-7-14.2-8.3-14-8-7.6-2.3-13,5,7.491,10.372-19,52c-4.2,6.6,5.8,13.1,12,13s9.2,10.3,20,10,7-5.1,20-5,25.6-4.3,33-3,10.6,8.1,15,9,24.177,3.656,29-8C331.4,432.2,330.2,435.4,334,424Z" transform="translate(-196.469 -362.25)"/>
</svg>
