<svg xmlns="http://www.w3.org/2000/svg" width="130.313" height="75.687" viewBox="0 0 130.313 75.687">
  <defs>
    <style>
      .cls-1 {
        fill: #ebcef2;
        stroke: #ebcef2;
        stroke-width: 5.07px;
        fill-rule: evenodd;
      }
    </style>
  </defs>
  <path id="gruia" class="cls-1" d="M220,367s-16.4-23.5-16-36-2.6-6.9,14-8,23.712-12.144,50,1c4,2,12.8,5.1,16,8s2.8,10.7,10,16,9.4,11.9,22,13,13,19,13,19,0.968,1.592-11,3c-3.4.4-5.2,4.9-7,5s-36.2.7-40-2a91.33,91.33,0,0,0-17-9,60.918,60.918,0,0,1-18-12c-3.4-3.5-4.2-1.5-10-1S219.2,367,220,367Z" transform="translate(-201.406 -315.094)"/>
</svg>
