<svg xmlns="http://www.w3.org/2000/svg" width="187.156" height="123.375" viewBox="0 0 187.156 123.375">
  <defs>
    <style>
      .cls-1 {
        fill: #e8f2ad;
        stroke: #e8f2ad;
        stroke-width: 5.07px;
        fill-rule: evenodd;
      }
    </style>
  </defs>
  <path id="imereti" class="cls-1" d="M328,378s-1.65-9.584-9-15c-3.8-2.8-3.532-2.506-11-4-3-.6-11.2-8.6-11-9s-9-6.6-10-12-3.8-12.8-4-19a32.3,32.3,0,0,1,4-17c3-5.8,16.6-14.2,18-15s8.2-6.8,11-8,5.4-2.8,11,0,8.6,3.2,13,3,11-2.8,12-7,0-4.6,2-7,2.8-.6,8,6,4.2,7.6,9,11,8.2,9.4,22,1,12.4-10.4,23-15,11.4-4.4,21,0,16,5.4,20,8,13.4,2.2,4,13-11,16-11,16a69.018,69.018,0,0,0-6,13c-2.4,7.2-4.4,18.8-8,23s-5,11-5,11-1.4,5.8-13,11-16.8,14.8-18,16-12.255,3-29,3c-1.8,0-18.463,1.421-33-2-3.4-.8-10,2.4-11-2s2-.2,2-3S328,378,328,378Z" transform="translate(-280.438 -264.438)"/>
</svg>
