<svg xmlns="http://www.w3.org/2000/svg" width="251.937" height="260" viewBox="0 0 251.937 260">
  <defs>
    <style>
      .cls-1 {
        fill: #fcc;
        stroke: #fcc;
        stroke-width: 5.07px;
        fill-rule: evenodd;
      }
    </style>
  </defs>
  <path id="kartli" class="cls-1" d="M495,491s-4.25,5.874-9-2-5.5-5.126-6-12,2.25-12.876,3-18,2.5-13.126,4-15-2.5-5.376,13-9,15.75-5.376,21-9,9-5.126,12-10,2.75-10.876-4-15-2.75-3.876-6-5a11.793,11.793,0,0,0-11,1c-4.5,2.626-5,1.624-11,1s-7.5-1.626-13-3-10.5-3.376-13-4-10.56-2.851-16-6c-4.75-2.75-9.25-5.376-11-8s-7-5.626-10-9-4-2.376-6-4-7.035-1.241-1-9c1.75-2.25,6.5-13.376,7-15s5.5-12.376,6-15,2.5-10.126,5-14,6.5-8.876,9-13,5.25-8.126,7-11,2.75-9.126,3-12,1-8.376,3-12,4.75-6.626,6-9,2-3.876,8-1,7.75,2.374,12,1,8.5-2.376,12-5,11.5-6.376,13-8,7.5-6.876,12,3a65.625,65.625,0,0,0,10,16c1.75,2.376,9,10.874,11,12s6.25,5.624,9,10,3.75,11.374,5,15,5.75,13.374,7,16,0.5,5.124,4,8,5.25,1.124,9-1,7.25,3.874,9,6,3.75,8.874,3,12,1.75,6.374,4,10,3,8.624,0,12-6.25,6.874-7,9,0.25,5.124,5,8,5.75,5.874,10,8,5.75,1.624,10,1,5.75-3.626,11,3,14.25,12.624,17,14,8,6.624,12,10,5.25,7.374,7,9,4.75,5.374,5,8-4,3.124-9,0-8.75-1.626-11-1-6,2.124-8,4-4.25,5.624-6,8-8.25,5.624-12,8-5.75,3.624-8,8-1.75,5.124-9,5-6.5-.876-10,0-5.5,4.374-1,8,10.25,7.874-2,8-14.75-.126-21,0-12,1.874-15,2-6.75,2.624-8,4-4.5,3.624-9,0-8.25-1.626-13-1-6.5-2.126-9-4-7.25-.876-12,3-7.25,4.624-11,6S496.75,491.25,495,491Z" transform="translate(-425.594 -235.625)"/>
</svg>
