<svg xmlns="http://www.w3.org/2000/svg" width="222.594" height="209.407" viewBox="0 0 222.594 209.407">
  <defs>
    <style>
      .cls-1 {
        fill: #fffdc0;
        stroke: #fffdc0;
        stroke-width: 5.07px;
        fill-rule: evenodd;
      }
    </style>
  </defs>
  <path id="kaxeti" class="cls-1" d="M681,430s-6.5,1.124-10-6-6.5-11.126-12-14-10.5-10.626-14-13-11.5-8.876-13-11-3.75-1.626,0-13,3-8.876,4-16,0.5-12.376-5-15-3.5-13.626-4-17,3.25-12.126,8-16,6.5-8.626,10-16,2-6.626,2-10-0.5-5.876,7-5-0.75-.376,9,3,9.983,7.286,13,11c3.25,4,2.25,2.374,7,6s5,2.624,5,8,3.75,5.624,9,8a123.908,123.908,0,0,0,14,5c3.5,1.126,6.25-.126,11,6s6,5.124,14,6,10.041,4.24,14,6c2.25,1,7-.376,11-1s7.5,2.124,11,5,7.25,3.624,11,7,5.25,5.624,5,10-7.5,10.374-9,11-15.5,1.374-15,12,2,9.374,10,11,14,5.874,8,12-5,8.124,4,10,8.25,2.124,13,8,10.25,6.874,15,8,3-.626,11,3,10,8.374,11,10,1,2.124,6,3,1.365,7.009-2,10c-2.25,2-.25,6.374,1,11s3,9.624-3,12-4.75,4.624-12,1-8.25-3.126-14,0-7.25,3.124-12-2-6.25-7.876-12-11-11.25-3.876-18-3-7.662,1.674-19,4c-9.75,2-11.5.624-18-1s-4.75-5.626-16-7,1,0.624-5,0-6.25-3.376-6-10,0.25-11.876-7-11-8,3.624-9-3c-0.933-6.179-10.891-6.822-3.391-6.072s-0.39.047-.609,0.072A17.01,17.01,0,0,1,681,430Z" transform="translate(-624.406 -275.281)"/>
</svg>
