<svg xmlns="http://www.w3.org/2000/svg" width="179.281" height="169.812" viewBox="0 0 179.281 169.812">
  <defs>
    <style>
      .cls-1 {
        fill: #e8f2ad;
        stroke: #e8f2ad;
        stroke-width: 5.07px;
        fill-rule: evenodd;
      }
    </style>
  </defs>
  <path id="mtianeti" class="cls-1" d="M533,232c7.5-4.374,6-3.626,12-4s10.815-5.3,13-6c1.655-.53,26.235-3.145,30,8,3.721,11.017,3,8.874,5,11s6.5,9.374,7-2,0.75-5.126,0-8-0.75-4.626,2-6,4.5-1.376,8,0,6.25,3.124,9,3,3.75,1.374,9,2,8.5,0.374,12,4,7.25,7.624,10,11,2.25,6.874,7,10,7,3.874,12,3,9.5-1.376,13,1a40.548,40.548,0,0,0,13,5c2.75,0.376,6.75,5.124,7,8s1.5,8.874,1,12,0.25,7.624-4,8-8-.876-9,2,0,10.624-8,5-6-7.876-8-10a20.394,20.394,0,0,0-8-6,33.058,33.058,0,0,0-11-3c-2.5-.374-6.75-2.126-7,3s0.138,6.235-3,10l-5,6a30.477,30.477,0,0,1-4,7c-2.75,3.626-5.5,7.374-6,10s-3.25,4.874-3,10-1.25,6.374,1,13,15.25,5.374,7,23-3.25,10.374-5,14,1,9.624-6,10-11.5-.376-14-3-7.25-8.126-10-9-6-5.126,0-10,6.75-3.376,7-9,0.5-5.626-2-10-4.25-8.376-4-12a12.317,12.317,0,0,0-3-9,10.065,10.065,0,0,0-8-4,18.04,18.04,0,0,0-8,2c-3,1.376-4.5-3.626-6-10s-6.5-17.376-7-18-5.75-13.626-8-16-11-11.626-15-16-8.75-11.626-12-15-7-10.626-4-13,3-2,3-2" transform="translate(-526.375 -218.813)"/>
</svg>
