<svg xmlns="http://www.w3.org/2000/svg" width="163.031" height="98.093" viewBox="0 0 163.031 98.093">
  <defs>
    <style>
      .cls-1 {
        fill: #ffdea9;
        stroke: #ffdea9;
        stroke-width: 5.07px;
        fill-rule: evenodd;
      }
    </style>
  </defs>
  <path id="racha_lechxumi" class="cls-1" d="M423,197s9-3.2,22,9,17.2,11.8,20,12,8,1.2,8,8-6.2,8.4-7,14-2,7.8,5,10,6.8,1.2,3,7-5.6,9.6-6,14a44.665,44.665,0,0,0,0,9c0.2,3.2-2,4.8-8,1s-15.6-7.4-20-9-11.441-10.044-22-2c-8.027,6.115-32.332,19.24-36,19-12.2-.8-7.8-1.2-14-7s-3.6-3.4-8-10-5.8-6-8,3-6.2,6.2-9,6a49.942,49.942,0,0,1-17-3c-1.8-.6-6.8.4-7-7s-1-12.2,1-25,30-21,30-21,17.6-.2,27,0,16.4,2.6,22-4,11.4-11.4,14-17,2.2-8.4,6-8S423,197,423,197Z" transform="translate(-316.125 -193.438)"/>
</svg>
