<svg xmlns="http://www.w3.org/2000/svg" width="229" height="146.094" viewBox="0 0 229 146.094">
  <defs>
    <style>
      .cls-1 {
        fill: #fffdc0;
        stroke: #fffdc0;
        stroke-width: 5.07px;
        fill-rule: evenodd;
      }
    </style>
  </defs>
  <path id="samcxejavaxeti" class="cls-1" d="M338,424s7.25-.126,11,0,7.75-1.876,8,7-6.75,9.374,3,12,9-.376,14,7,2.25,4.874,9,9,8.5,5.624,12,7,3.75,4.124,4,12-1.25,8.874,6,10,5,4.374,7,6,8.25,1.874,11,0,4.75-2.376,10,3,10.5,6.374,15,6,9.5-1.626,15-2,11.75-2.376,15-3,4-2.126,8-3-0.25-6.376-4-11-2.5-7.626-2-12,2.75-13.376,3-15a68.142,68.142,0,0,1,4-11c1.5-3.124,4.75-8.626,9-9s9-2.376,14-4a31.149,31.149,0,0,0,11-6,139.447,139.447,0,0,0,12-11c2-2.124,4-7.376-3-13s-2.25-3.376-4-5-7.75-3.126-12-2-7.5,2.124-12,2-11-2.876-15-4-10.25-2.126-15-4-11.25-2.876-15-6-10.75-6.876-13-10-6.25-5.126-9-8-7.75-6.126-13-2-8,5.374-11,8-6.25,6.374-9,8-7.5,4.624-12,5-9.25-.376-14,0a128.569,128.569,0,0,1-17,0c-5-.374-18-1.626-22-2s-13-.876-16,0a33.98,33.98,0,0,0-8,4c-1.75,1.126-2.25,4.124-2,8s4,8.624,5,11,4.75,4.624,7,5,6.75,3.624,8,6,3.5,4.124,3,6S336.75,424,338,424Z" transform="translate(-308.406 -359.5)"/>
</svg>
