<svg xmlns="http://www.w3.org/2000/svg" width="134.75" height="125.563" viewBox="0 0 134.75 125.563">
  <defs>
    <style>
      .cls-1 {
        fill: #fffdc0;
        stroke: #fffdc0;
        stroke-width: 5.07px;
        fill-rule: evenodd;
      }
    </style>
  </defs>
  <path id="samegrelo" class="cls-1" d="M195,283s7.2-10.3,19-11,28.8-20.1,28-18,0.965-10.05-2-21c-2.6-9.6,2.8-4.1,3-15s2.8-5.3,9-7,3.024-3.429,17,3c10,4.6,18.8-.1,24,3s6.4,5.5,12,6,3.576-1.38,16,12c2.6,2.8,5.4,2.3,0,7s-2,27-2,27,3.4,8.7-4,10-13.2,7.9-19,13-13.4,8.5-13,26,0,6.1,0,9,1,5.9-15-3-25.8-6.3-25-6-16,4.3-27,5-12.8,2.5-12-5-4-16-4-16-4.8-2.9-5-11S195,283,195,283Z" transform="translate(-191.875 -206.906)"/>
</svg>
