<svg xmlns="http://www.w3.org/2000/svg" width="185.125" height="94.656" viewBox="0 0 185.125 94.656">
  <defs>
    <style>
      .cls-1 {
        fill: #c1ffa6;
        stroke: #c1ffa6;
        stroke-width: 5.07px;
        fill-rule: evenodd;
      }
    </style>
  </defs>
  <path id="svaneti" class="cls-1" d="M243,214s-0.4-5.1-3-8-3.4-3.3-3-8,11-10.5,17-12,15.6-12.5,16-18-1.2-5.5,12-13,6.647-4.765,19-6c6-.6,12.6,3.5,18,8s14,4.1,15,4a17.837,17.837,0,0,0,9-3c4.6-2.9,3.2-3.3,11-4s7.6,2.1,13,4,5.2,2.7,8,4,3.6,5.1,4,11-1.4,6.1,7,10,8.8,4.3,18,8,10,3.5,11,4,4.4-.3-1,8-10.4,14.7-15,18-1.2,3.9-11,4-42.6-.9-45,1-10.8,7.3-13,9-6.37,6.418-11-4c-1.6-3.6-6.6-5.1-9-7s-8.6-1.7-13-5-10.6-3.3-14-3-11.8-1.3-16-2-2.981-3.132-8-6c-2.8-1.6-6.2,1.5-9,3A31.434,31.434,0,0,1,243,214Z" transform="translate(-234.375 -145.438)"/>
</svg>
